# xmcd
#
# Track frame offsets:
#	182
#	29420
#	59770
#	87072
#
# Disc length: 1379 seconds
#
# Revision: 0
# Processed by: cddbd v1.5.2PL0 Copyright (c) Steve Scherf et al.
# Submitted via: EasyCDDAExtractor 2011.0.0.0
#
DISCID=2e056104
DTITLE=Ramin and Mehmet - Noche De Pasion
DYEAR=1995
DGENRE=Trance
TTITLE0=Noche De Pasion
TTITLE1=Moon 44
TTITLE2=Chabos De Pasion
TTITLE3=Doug's Edit
EXTD=
EXTT0=
EXTT1=
EXTT2=
EXTT3=
PLAYORDER=
